<svg  width="117" height="119" viewBox="0 0 117 119"  xmlns="http://www.w3.org/2000/svg">
<path class="fa-secondary" d="M117 53.237H103.144V39.1448H93.9076V53.237H80.0525V62.6317H93.9076V76.7237H103.144V62.6317H117V53.237Z" fill="#ff7eee"/>
<path  class="fa-primary" d="M54.8243 64.317C62.5143 60.0781 67.7368 51.7978 67.7368 42.2766C67.7368 28.4403 56.7089 17.2241 43.1054 17.2241C29.5018 17.2241 18.4737 28.4403 18.4737 42.2766C18.4737 51.7978 23.6962 60.0781 31.3862 64.317C15.2493 65.8449 0 82.0166 0 101.777H86.2105C86.2105 82.0166 70.9612 65.8449 54.8243 64.317Z" fill="#7AB9E8"/>
<path d="M43.1052 101.777H86.2106C86.2106 82.0166 70.9613 65.8449 54.8244 64.317C62.5144 60.0781 67.7369 51.7978 67.7369 42.2766C67.7369 28.4403 56.709 17.2241 43.1055 17.2241L43.1052 101.777Z" fill="#579ADF"/>
</svg>
