<svg width="55" height="56" viewBox="0 0 72 74" fill="none" xmlns="http://www.w3.org/2000/svg">
        <g clip-path="url(#clip0)">
        <path d="M13.5 29.918H15.6094C16.386 29.918 17.0156 29.2708 17.0156 28.4727V26.3049C17.0156 25.5067 16.386 24.8596 15.6094 24.8596H13.5C12.7232 24.8596 12.0938 25.5067 12.0938 26.3049V28.4727C12.0938 29.2708 12.7232 29.918 13.5 29.918Z" fill="white"/>
        <path d="M13.5 38.5901H15.6094C16.386 38.5901 17.0156 37.9429 17.0156 37.1448V34.9766C17.0156 34.1783 16.386 33.5312 15.6094 33.5312H13.5C12.7232 33.5312 12.0938 34.1783 12.0938 34.9766V37.1448C12.0938 37.9429 12.7232 38.5901 13.5 38.5901Z" fill="white"/>
        <path d="M13.5 47.2616H15.6094C16.386 47.2616 17.0156 46.6145 17.0156 45.8162V43.6484C17.0156 42.8503 16.386 42.2031 15.6094 42.2031H13.5C12.7232 42.2031 12.0938 42.8503 12.0938 43.6484V45.8162C12.0938 46.6143 12.7232 47.2616 13.5 47.2616Z" fill="white"/>
        <path d="M13.5 55.933H15.6094C16.386 55.933 17.0156 55.2858 17.0156 54.4877V52.3201C17.0156 51.522 16.386 50.8748 15.6094 50.8748H13.5C12.7232 50.8748 12.0938 51.522 12.0938 52.3201V54.4877C12.0938 55.2858 12.7232 55.933 13.5 55.933Z" fill="white"/>
        <path d="M20.8828 29.918H22.9923C23.7688 29.918 24.3986 29.2708 24.3986 28.4727V26.3049C24.3986 25.5067 23.7688 24.8596 22.9923 24.8596H20.8828C20.1061 24.8596 19.4766 25.5067 19.4766 26.3049V28.4727C19.4766 29.2708 20.1061 29.918 20.8828 29.918Z" fill="white"/>
        <path d="M20.8828 38.5901H22.9923C23.7688 38.5901 24.3986 37.9429 24.3986 37.1448V34.9766C24.3986 34.1783 23.7688 33.5312 22.9923 33.5312H20.8828C20.1061 33.5312 19.4766 34.1783 19.4766 34.9766V37.1448C19.4766 37.9429 20.1061 38.5901 20.8828 38.5901Z" fill="white"/>
        <path d="M20.8828 47.2616H22.9923C23.7688 47.2616 24.3986 46.6145 24.3986 45.8162V43.6484C24.3986 42.8503 23.7688 42.2031 22.9923 42.2031H20.8828C20.1061 42.2031 19.4766 42.8503 19.4766 43.6484V45.8162C19.4766 46.6143 20.1061 47.2616 20.8828 47.2616Z" fill="white"/>
        <path d="M20.8828 55.933H22.9923C23.7688 55.933 24.3986 55.2858 24.3986 54.4877V52.3201C24.3986 51.522 23.7688 50.8748 22.9923 50.8748H20.8828C20.1061 50.8748 19.4766 51.522 19.4766 52.3201V54.4877C19.4766 55.2858 20.1061 55.933 20.8828 55.933Z" fill="white"/>
        <path d="M28.2656 29.918H30.3751C31.1518 29.918 31.7814 29.2708 31.7814 28.4727V26.3049C31.7814 25.5067 31.1518 24.8596 30.3751 24.8596H28.2656C27.4891 24.8596 26.8594 25.5067 26.8594 26.3049V28.4727C26.8594 29.2708 27.489 29.918 28.2656 29.918Z" fill="white"/>
        <path d="M28.2656 38.5901H30.3751C31.1518 38.5901 31.7814 37.9429 31.7814 37.1448V34.9766C31.7814 34.1783 31.1518 33.5312 30.3751 33.5312H28.2656C27.4891 33.5312 26.8594 34.1783 26.8594 34.9766V37.1448C26.8594 37.9429 27.489 38.5901 28.2656 38.5901Z" fill="white"/>
        <path d="M28.2656 47.2616H30.3751C31.1518 47.2616 31.7814 46.6145 31.7814 45.8162V43.6484C31.7814 42.8503 31.1518 42.2031 30.3751 42.2031H28.2656C27.4891 42.2031 26.8594 42.8503 26.8594 43.6484V45.8162C26.8594 46.6143 27.489 47.2616 28.2656 47.2616Z" fill="white"/>
        <path d="M28.2656 55.933H30.3751C31.1518 55.933 31.7814 55.2858 31.7814 54.4877V52.3201C31.7814 51.522 31.1518 50.8748 30.3751 50.8748H28.2656C27.4891 50.8748 26.8594 51.522 26.8594 52.3201V54.4877C26.8594 55.2858 27.489 55.933 28.2656 55.933Z" fill="white"/>
        <path d="M41.6248 29.918H43.7341C44.5108 29.918 45.1404 29.2708 45.1404 28.4727V26.3049C45.1404 25.5067 44.5108 24.8596 43.7341 24.8596H41.6248C40.8479 24.8596 40.2185 25.5067 40.2185 26.3049V28.4727C40.2185 29.2708 40.8479 29.918 41.6248 29.918Z" fill="white"/>
        <path d="M41.6248 21.2465H43.7341C44.5108 21.2465 45.1404 20.5993 45.1404 19.8012V17.6335C45.1404 16.8354 44.5108 16.1882 43.7341 16.1882H41.6248C40.8479 16.1882 40.2185 16.8354 40.2185 17.6335V19.8012C40.2185 20.5993 40.8479 21.2465 41.6248 21.2465Z" fill="white"/>
        <path d="M41.6248 12.5751H43.7341C44.5108 12.5751 45.1404 11.9279 45.1404 11.1298V8.96142C45.1404 8.16332 44.5108 7.51611 43.7341 7.51611H41.6248C40.8479 7.51611 40.2185 8.16332 40.2185 8.96142V11.1298C40.2185 11.9279 40.8479 12.5751 41.6248 12.5751Z" fill="white"/>
        <path d="M41.6248 38.5901H43.7341C44.5108 38.5901 45.1404 37.9429 45.1404 37.1448V34.9766C45.1404 34.1783 44.5108 33.5312 43.7341 33.5312H41.6248C40.8479 33.5312 40.2185 34.1783 40.2185 34.9766V37.1448C40.2185 37.9429 40.8479 38.5901 41.6248 38.5901Z" fill="white"/>
        <path d="M41.6248 47.2616H43.7341C44.5108 47.2616 45.1404 46.6145 45.1404 45.8162V43.6484C45.1404 42.8503 44.5108 42.2031 43.7341 42.2031H41.6248C40.8479 42.2031 40.2185 42.8503 40.2185 43.6484V45.8162C40.2185 46.6143 40.8479 47.2616 41.6248 47.2616Z" fill="white"/>
        <path d="M41.6248 55.933H43.7341C44.5108 55.933 45.1404 55.2858 45.1404 54.4877V52.3201C45.1404 51.522 44.5108 50.8748 43.7341 50.8748H41.6248C40.8479 50.8748 40.2185 51.522 40.2185 52.3201V54.4877C40.2185 55.2858 40.8479 55.933 41.6248 55.933Z" fill="white"/>
        <path d="M49.0076 29.918H51.1169C51.8936 29.918 52.5232 29.2708 52.5232 28.4727V26.3049C52.5232 25.5067 51.8936 24.8596 51.1169 24.8596H49.0076C48.231 24.8596 47.6013 25.5067 47.6013 26.3049V28.4727C47.6013 29.2708 48.231 29.918 49.0076 29.918Z" fill="white"/>
        <path d="M49.0076 21.2465H51.1169C51.8936 21.2465 52.5232 20.5993 52.5232 19.8012V17.6335C52.5232 16.8354 51.8936 16.1882 51.1169 16.1882H49.0076C48.231 16.1882 47.6013 16.8354 47.6013 17.6335V19.8012C47.6013 20.5993 48.231 21.2465 49.0076 21.2465Z" fill="white"/>
        <path d="M49.0076 12.5751H51.1169C51.8936 12.5751 52.5232 11.9279 52.5232 11.1298V8.96142C52.5232 8.16332 51.8936 7.51611 51.1169 7.51611H49.0076C48.231 7.51611 47.6013 8.16332 47.6013 8.96142V11.1298C47.6013 11.9279 48.231 12.5751 49.0076 12.5751Z" fill="white"/>
        <path d="M49.0076 38.5901H51.1169C51.8936 38.5901 52.5232 37.9429 52.5232 37.1448V34.9766C52.5232 34.1783 51.8936 33.5312 51.1169 33.5312H49.0076C48.231 33.5312 47.6013 34.1783 47.6013 34.9766V37.1448C47.6013 37.9429 48.231 38.5901 49.0076 38.5901Z" fill="white"/>
        <path d="M49.0076 47.2616H51.1169C51.8936 47.2616 52.5232 46.6145 52.5232 45.8162V43.6484C52.5232 42.8503 51.8936 42.2031 51.1169 42.2031H49.0076C48.231 42.2031 47.6013 42.8503 47.6013 43.6484V45.8162C47.6013 46.6143 48.231 47.2616 49.0076 47.2616Z" fill="white"/>
        <path d="M49.0076 55.933H51.1169C51.8936 55.933 52.5232 55.2858 52.5232 54.4877V52.3201C52.5232 51.522 51.8936 50.8748 51.1169 50.8748H49.0076C48.231 50.8748 47.6013 51.522 47.6013 52.3201V54.4877C47.6013 55.2858 48.231 55.933 49.0076 55.933Z" fill="white"/>
        <path d="M56.3904 29.918H58.4996C59.2761 29.918 59.9058 29.2708 59.9058 28.4727V26.3049C59.9058 25.5067 59.2761 24.8596 58.4996 24.8596H56.3904C55.6138 24.8596 54.9841 25.5067 54.9841 26.3049V28.4727C54.9841 29.2708 55.6138 29.918 56.3904 29.918Z" fill="white"/>
        <path d="M56.3904 21.2465H58.4996C59.2761 21.2465 59.9058 20.5993 59.9058 19.8012V17.6335C59.9058 16.8354 59.2761 16.1882 58.4996 16.1882H56.3904C55.6138 16.1882 54.9841 16.8354 54.9841 17.6335V19.8012C54.9841 20.5993 55.6138 21.2465 56.3904 21.2465Z" fill="white"/>
        <path d="M56.3904 12.5751H58.4996C59.2761 12.5751 59.9058 11.9279 59.9058 11.1298V8.96142C59.9058 8.16332 59.2761 7.51611 58.4996 7.51611H56.3904C55.6138 7.51611 54.9841 8.16332 54.9841 8.96142V11.1298C54.9841 11.9279 55.6138 12.5751 56.3904 12.5751Z" fill="white"/>
        <path d="M56.3904 38.5901H58.4996C59.2761 38.5901 59.9058 37.9429 59.9058 37.1448V34.9766C59.9058 34.1783 59.2761 33.5312 58.4996 33.5312H56.3904C55.6138 33.5312 54.9841 34.1783 54.9841 34.9766V37.1448C54.9841 37.9429 55.6138 38.5901 56.3904 38.5901Z" fill="white"/>
        <path d="M56.3904 47.2616H58.4996C59.2761 47.2616 59.9058 46.6145 59.9058 45.8162V43.6484C59.9058 42.8503 59.2761 42.2031 58.4996 42.2031H56.3904C55.6138 42.2031 54.9841 42.8503 54.9841 43.6484V45.8162C54.9841 46.6143 55.6138 47.2616 56.3904 47.2616Z" fill="white"/>
        <path d="M56.3904 55.933H58.4996C59.2761 55.933 59.9058 55.2858 59.9058 54.4877V52.3201C59.9058 51.522 59.2761 50.8748 58.4996 50.8748H56.3904C55.6138 50.8748 54.9841 51.522 54.9841 52.3201V54.4877C54.9841 55.2858 55.6138 55.933 56.3904 55.933Z" fill="white"/>
        <path d="M16.2793 65.3284C15.5026 65.3284 14.873 65.9756 14.873 66.7737C14.873 67.5719 15.5026 68.219 16.2793 68.219H16.3125C17.089 68.219 17.7187 67.5719 17.7187 66.7737C17.7187 65.9754 17.089 65.3284 16.3125 65.3284H16.2793Z" fill="white"/>
        <path d="M44.4043 65.3284C43.6276 65.3284 42.998 65.9756 42.998 66.7737C42.998 67.5719 43.6276 68.219 44.4043 68.219H44.4373C45.2139 68.219 45.8436 67.5719 45.8436 66.7737C45.8436 65.9756 45.2139 65.3284 44.4373 65.3284H44.4043Z" fill="white"/>
        <path d="M1.43943 71.1094H1.40624C0.629435 71.1094 0 71.7566 0 72.5547C0 73.3528 0.629435 74 1.40624 74H1.43943C2.21596 74 2.84568 73.3528 2.84568 72.5547C2.84568 71.7564 2.2161 71.1094 1.43943 71.1094Z" fill="white"/>
        <path d="M70.5938 71.1094H70.5603C69.7836 71.1094 69.1541 71.7566 69.1541 72.5547C69.1541 73.3528 69.7836 74 70.5603 74H70.5938C71.3705 74 72 73.3528 72 72.5547C72 71.7564 71.3703 71.1094 70.5938 71.1094Z" fill="white"/>
        <path d="M66.5202 71.1094H65.5306V1.44555C65.5306 0.647308 64.9009 0.000244141 64.1244 0.000244141H35.9999C35.2231 0.000244141 34.5936 0.647308 34.5936 1.44555V19.0787H7.87499C7.09818 19.0787 6.46874 19.7259 6.46874 20.524V71.1094H5.47973C4.70306 71.1094 4.07349 71.7566 4.07349 72.5547C4.07349 73.3528 4.70306 74 5.47973 74H7.87499H21.9374H30.3752H35.9999H50.0623H58.4997H64.1244H64.1245H64.1248H66.5202C67.2968 74 67.9264 73.3528 67.9264 72.5547C67.9264 71.7564 67.2968 71.1094 66.5202 71.1094ZM28.9689 71.1094H23.3437V65.3286H28.9689V71.1094ZM34.5936 71.1094H31.7814V63.8833C31.7814 63.0852 31.1519 62.438 30.3752 62.438H21.9374C21.1606 62.438 20.5312 63.0852 20.5312 63.8833V71.1094H9.28123V68.219H12.2391C13.0157 68.219 13.6454 67.572 13.6454 66.7737C13.6454 65.9756 13.0157 65.3284 12.2391 65.3284H9.28123V21.9693H34.5936V71.1094ZM57.0934 71.1094H51.4686V65.3286H57.0934V71.1094ZM62.7181 71.1094H59.9059V63.8833C59.9059 63.0852 59.2762 62.438 58.4997 62.438H50.0623C49.2857 62.438 48.6561 63.0852 48.6561 63.8833V71.1094H37.4061V68.219H40.3639C41.1405 68.219 41.7701 67.572 41.7701 66.7737C41.7701 65.9756 41.1405 65.3284 40.3639 65.3284H37.4061V20.524V2.89086H62.7181V71.1094Z" fill="white"/>
        </g>
        <defs>
        <clipPath id="clip0">
        <rect width="72" height="74" fill="white"/>
        </clipPath>
        </defs>
        </svg>