<svg width="72" height="59" viewBox="0 0 72 59" fill="none" xmlns="http://www.w3.org/2000/svg">
<g clip-path="url(#clip0_19:208)">
<path d="M71.2467 28.0089L66.1062 23.7965L37.8193 0.617014C36.8152 -0.205671 35.1873 -0.205671 34.1832 0.617014L5.89618 23.7965L0.753152 28.0111C-0.233476 28.8482 -0.205299 30.1822 0.816285 30.9907C1.81286 31.7794 3.3927 31.7794 4.38927 30.9907L5.14009 30.3711V56.8927C5.14009 58.0566 6.29141 59 7.71168 59H64.2856C65.7059 59 66.8572 58.0566 66.8572 56.8927V30.3711L67.6106 30.9886C68.6322 31.7971 70.2601 31.7739 71.2467 30.9369C72.2092 30.1202 72.2092 28.8255 71.2467 28.0089ZM43.7133 54.7856H28.2841V37.9276H43.7133V54.7856ZM61.714 54.7856H48.8564V35.8205C48.8564 34.6567 47.705 33.7132 46.2848 33.7132H25.7125C24.2922 33.7132 23.1409 34.6567 23.1409 35.8205V54.7856H10.2833V26.1567L35.9986 5.08431L61.714 26.1567V54.7856Z" fill="white"/>
</g>
<defs>
<clipPath id="clip0_19:208">
<rect width="72" height="59" fill="white"/>
</clipPath>
</defs>
</svg>
