<svg width="81" height="76" viewBox="0 0 81 76" fill="none" xmlns="http://www.w3.org/2000/svg">
<path d="M0.000732422 14.25V69.0745L0.0234973 69.0958C0.152591 72.9268 3.48376 76 7.59449 76H15.1882V14.25H0.000732422Z" fill="#A9A8AE"/>
<path d="M2.53125 74.1494C3.26028 74.7693 4.11591 75.2489 5.06259 75.5672V14.252H2.53125V74.1494Z" fill="#57575C"/>
<path d="M15.1876 14.252H12.6562V75.9996H15.1876V14.252Z" fill="#57575C"/>
<path d="M10.1251 14.252H7.59375V75.9996H10.1251V14.252Z" fill="#57575C"/>
<path d="M15.1875 0V68.8797C15.1875 72.8127 11.7905 76 7.59375 76H73.3504L73.3554 75.9953C73.3757 75.9953 73.391 76 73.406 76C73.9298 76 74.4437 75.9502 74.9373 75.8552C75.1752 75.8078 75.3929 75.7197 75.6208 75.6556C75.869 75.5843 76.1244 75.5345 76.3623 75.4394C76.7421 75.2899 77.0989 75.0927 77.4509 74.8862C77.5142 74.8481 77.585 74.8268 77.6483 74.7841C79.6657 73.5087 80.9947 71.3452 80.9997 68.8917V68.8893V0H15.1875Z" fill="#77757F"/>
<path d="M32.9061 7.90645C32.9061 12.6446 28.7498 16.4896 23.6266 16.4896C23.3407 16.4896 23.0622 16.4753 22.7812 16.4516V75.8789H73.4062V16.4516C73.1303 16.4753 72.8468 16.492 72.5658 16.492C67.4401 16.4896 63.2811 12.6444 63.2811 7.90645C63.2811 7.64284 63.3014 7.38392 63.3266 7.125H32.8658C32.8911 7.38392 32.9061 7.64284 32.9061 7.90645Z" fill="#A9A8AE"/>
<path d="M68.3137 61.7496C68.3137 51.2734 59.2619 42.7827 48.0941 42.7827C36.9287 42.7827 27.8794 51.2734 27.8794 61.7496C27.8794 67.3711 30.4993 72.4039 34.6378 75.8785H61.5526C65.6938 72.4039 68.3137 67.3711 68.3137 61.7496ZM55.7917 69.4278C55.5207 69.5823 55.1842 69.6748 54.8475 69.6748C53.84 69.6748 53.0327 68.9337 53.0327 68.0384C53.0327 67.3567 53.4327 66.9887 53.7692 66.68C55.1842 65.381 56.3258 63.7446 56.3258 61.6094C56.3258 58.7975 55.3183 57.4388 53.2301 57.4388C48.322 57.4388 50.5749 68.7178 42.4673 68.7178C39.4728 68.7178 36.8807 66.9863 36.4126 63.0319H34.494C33.6181 63.0319 32.9118 62.3836 32.9118 61.6068C32.9118 60.804 33.6181 60.1557 34.494 60.1557H36.4457C36.7849 57.6858 37.8607 55.648 39.4731 54.5933C39.7768 54.4104 40.1463 54.2846 40.5514 54.2846C41.5258 54.2846 42.3359 55.0257 42.3359 55.952C42.3359 56.3867 42.065 56.8189 41.5969 57.2844C40.5869 58.239 39.8124 59.8493 39.8124 61.6068C39.8124 64.1718 41.1261 65.1314 42.4703 65.1314C46.8748 65.1314 44.8243 53.8525 53.2331 53.8525C56.9363 53.8525 59.3588 56.0161 59.7941 60.1533H61.6825C62.5531 60.1533 63.2594 60.8017 63.2594 61.6045C63.2594 62.3786 62.5531 63.0296 61.6825 63.0296H59.7941C59.391 66.0317 57.6395 68.3781 55.7917 69.4278Z" fill="#57575C"/>
</svg>
