<svg width="292" height="292" viewBox="0 0 292 292" fill="none" xmlns="http://www.w3.org/2000/svg">
<path d="M0.000976562 54.7061V265.178L0.0829766 265.26C0.547977 279.967 12.547 291.765 27.354 291.765H54.707V54.7061H0.000976562Z" fill="#37A18E"/>
<path d="M9.11902 284.662C11.745 287.042 14.827 288.883 18.237 290.105V54.7148H9.11902V284.662Z" fill="#319180"/>
<path d="M54.707 54.7148H45.589V291.765H54.707V54.7148Z" fill="#319180"/>
<path d="M36.472 54.7148H27.354V291.765H36.472V54.7148Z" fill="#319180"/>
<path d="M54.707 0V264.43C54.707 279.529 42.471 291.765 27.354 291.765H264.212L264.23 291.747C264.303 291.747 264.358 291.765 264.412 291.765C266.299 291.765 268.15 291.574 269.928 291.209C270.785 291.027 271.569 290.689 272.39 290.443C273.284 290.169 274.204 289.978 275.061 289.613C276.429 289.039 277.714 288.282 278.982 287.489C279.21 287.343 279.465 287.261 279.693 287.097C286.96 282.201 291.747 273.895 291.765 264.476V264.467V0H54.707Z" fill="#3DB39E"/>
<path d="M118.53 30.353C118.53 48.543 103.559 63.304 85.1049 63.304C84.0749 63.304 83.0719 63.249 82.0599 63.158V291.3H264.413V63.158C263.419 63.249 262.398 63.313 261.386 63.313C242.923 63.304 227.942 48.542 227.942 30.353C227.942 29.341 228.015 28.347 228.106 27.353H118.385C118.476 28.347 118.53 29.341 118.53 30.353Z" fill="#37A18E"/>
<path d="M246.068 237.059C246.068 196.841 213.463 164.245 173.236 164.245C133.018 164.245 100.422 196.841 100.422 237.059C100.422 258.64 109.859 277.961 124.766 291.3H221.714C236.631 277.961 246.068 258.64 246.068 237.059ZM200.963 266.536C199.987 267.129 198.775 267.484 197.562 267.484C193.933 267.484 191.025 264.639 191.025 261.202C191.025 258.585 192.466 257.172 193.678 255.987C198.775 251 202.887 244.718 202.887 236.521C202.887 225.726 199.258 220.51 191.736 220.51C174.057 220.51 182.172 263.81 152.968 263.81C142.182 263.81 132.845 257.163 131.159 241.982H124.248C121.093 241.982 118.549 239.493 118.549 236.511C118.549 233.429 121.093 230.94 124.248 230.94H131.278C132.5 221.458 136.375 213.635 142.183 209.586C143.277 208.884 144.608 208.401 146.067 208.401C149.577 208.401 152.495 211.246 152.495 214.802C152.495 216.471 151.519 218.13 149.833 219.917C146.195 223.582 143.405 229.764 143.405 236.511C143.405 246.358 148.137 250.042 152.979 250.042C168.844 250.042 161.458 206.742 191.747 206.742C205.086 206.742 213.812 215.048 215.38 230.931H222.182C225.318 230.931 227.862 233.42 227.862 236.502C227.862 239.474 225.318 241.973 222.182 241.973H215.38C213.928 253.498 207.619 262.506 200.963 266.536Z" fill="#9FCAC2"/>
</svg>
