<svg width="50" height="52" viewBox="0 0 50 52" fill="none" xmlns="http://www.w3.org/2000/svg">
<g clip-path="url(#clip0_159_64)">
<path d="M48.2559 41.8198H1.74414C0.780859 41.8198 0 41.0076 0 40.0059V11.9943C0 10.9925 0.780957 10.1804 1.74414 10.1804H48.2559C49.2191 10.1804 50 10.9926 50 11.9943V40.0058C50 41.0077 49.219 41.8198 48.2559 41.8198Z" fill="#65C6BB"/>
<path d="M48.2559 10.1804H25V41.8198H48.2559C49.2191 41.8198 50 41.0076 50 40.0059V11.9943C50 10.9924 49.219 10.1804 48.2559 10.1804Z" fill="#20B8AE"/>
<path d="M25.0002 31.9975C21.8203 31.9975 19.2332 29.307 19.2332 25.9999C19.2332 22.6928 21.8203 20.0022 25.0002 20.0022C28.18 20.0022 30.7672 22.6928 30.7672 25.9999C30.7672 29.307 28.18 31.9975 25.0002 31.9975Z" fill="#20B8AE"/>
<path d="M39.3599 37.3329H10.6401C9.67686 37.3329 8.896 36.5207 8.896 35.519C8.896 33.8917 7.62305 32.5681 6.05859 32.5681C5.09531 32.5681 4.31445 31.7559 4.31445 30.7542V21.2462C4.31445 20.2444 5.09541 19.4323 6.05859 19.4323C7.62324 19.4323 8.896 18.1084 8.896 16.4814C8.896 15.4796 9.67695 14.6675 10.6401 14.6675H39.3599C40.3231 14.6675 41.104 15.4797 41.104 16.4814C41.104 18.1086 42.377 19.4323 43.9414 19.4323C44.9047 19.4323 45.6856 20.2445 45.6856 21.2462V30.7542C45.6856 31.756 44.9046 32.5681 43.9414 32.5681C42.3768 32.5681 41.104 33.8919 41.104 35.519C41.1041 36.5209 40.3231 37.3329 39.3599 37.3329ZM12.1397 33.705H37.8601C38.46 31.5332 40.1091 29.8182 42.1973 29.1943V22.8055C40.1091 22.1816 38.46 20.4665 37.8601 18.2948H12.1397C11.5398 20.4665 9.89072 22.1816 7.80254 22.8055V29.1943C9.89082 29.8183 11.5398 31.5334 12.1397 33.705Z" fill="#20B8AE"/>
<path d="M25 20.0024V31.9978C28.1799 31.9978 30.767 29.3072 30.767 26.0001C30.767 22.693 28.1799 20.0024 25 20.0024Z" fill="#1DA49C"/>
<path d="M43.9415 19.432C42.3768 19.432 41.1041 18.1082 41.1041 16.4811C41.1041 15.4793 40.3231 14.6672 39.36 14.6672H25V18.2952H37.8602C38.4602 20.4669 40.1093 22.1819 42.1975 22.8058V29.1946C40.1093 29.8185 38.4602 31.5335 37.8602 33.7053H25V37.3332H39.3599C40.3231 37.3332 41.104 36.5211 41.104 35.5193C41.104 33.8921 42.3769 32.5684 43.9414 32.5684C44.9047 32.5684 45.6855 31.7562 45.6855 30.7545V21.2466C45.6857 20.2442 44.9049 19.432 43.9415 19.432Z" fill="#1DA49C"/>
</g>
<defs>
<clipPath id="clip0_159_64">
<rect width="50" height="52" fill="white"/>
</clipPath>
</defs>
</svg>
