<svg width="50" height="53" viewBox="0 0 50 53" fill="none" xmlns="http://www.w3.org/2000/svg">
<ellipse cx="25" cy="26" rx="25" ry="26" fill="#B7BBD9"/>
<path d="M43.6778 42.5005C43.6778 42.5005 48.3662 40.4917 43.6778 35.6157C38.9894 30.7398 32.6306 28.0005 26.0001 28.0005C19.3697 28.0005 13.0109 30.7398 8.32248 35.6157C3.63407 40.4917 4.99939 42.0005 8.49973 45.5005L26.4996 52.0005L43.6778 42.5005Z" fill="#23232E"/>
<path d="M7.27279 37.5262C7.498 37.5524 2.82953 39.5052 7.1828 44.4104C11.8071 49.3472 18.1296 52.1693 24.7594 52.256C31.3893 52.3427 37.7834 49.6867 42.5351 44.8725C47.2869 40.0582 45.9414 38.5317 42.4871 34.9862L24.5737 28.2515C24.5737 28.2515 7.04757 37.5 7.27279 37.5262Z" fill="#23232E"/>
<path d="M36 22C36 28.0751 31.299 33 25.5 33C19.701 33 15 28.0751 15 22C15 15.9249 19.701 11 25.5 11C31.299 11 36 15.9249 36 22Z" fill="#545563"/>
</svg>
