<svg width="50" height="53" viewBox="0 0 50 53" fill="none" xmlns="http://www.w3.org/2000/svg">
<ellipse cx="25" cy="26" rx="25" ry="26" fill="#B7BBD9"/>
<path d="M43.6776 42.5005C43.6776 42.5005 48.366 40.4917 43.6776 35.6157C38.9892 30.7398 32.6303 28.0005 25.9999 28.0005C19.3695 28.0005 13.0106 30.7398 8.32224 35.6157C3.63383 40.4917 4.99914 42.0005 8.49949 45.5005L26.4993 52.0005L43.6776 42.5005Z" fill="#232634"/>
<path d="M7.27279 37.5262C7.498 37.5524 2.82953 39.5052 7.1828 44.4104C11.8071 49.3472 18.1296 52.1693 24.7594 52.256C31.3893 52.3427 37.7834 49.6867 42.5351 44.8725C47.2869 40.0582 45.9414 38.5317 42.4871 34.9862L24.5737 28.2515C24.5737 28.2515 7.04757 37.5 7.27279 37.5262Z" fill="#232634"/>
<path d="M7.02615 29.9153C7.08487 18.9165 14.9339 10.0002 24.5575 10.0002C34.1811 10.0002 41.9349 18.9165 41.8762 29.9153C41.8175 40.9141 34.0747 29.9155 24.4512 29.9155C14.8276 29.9155 6.96743 40.9141 7.02615 29.9153Z" fill="#595E9F"/>
<path d="M35 21C35 27.0751 30.299 32 24.5 32C18.701 32 14 27.0751 14 21C14 14.9249 18.701 10 24.5 10C30.299 10 35 14.9249 35 21Z" fill="#545563"/>
<path d="M11.0076 14.8693C11.0249 11.6278 17.2612 8.99994 24.9367 8.99994C32.6122 8.99994 38.8204 11.6278 38.8031 14.8693C38.7858 18.1109 32.5809 14.8694 24.9053 14.8694C17.2298 14.8694 10.9903 18.1109 11.0076 14.8693Z" fill="#595E9F"/>
</svg>
