<svg width="72" height="68" viewBox="0 0 72 68" fill="none" xmlns="http://www.w3.org/2000/svg">
<g clip-path="url(#clip0_89:39)">
<path d="M70.5985 18.0308L37.1336 2.22804C36.4201 1.89078 35.5799 1.89078 34.8662 2.22804L1.40145 18.0308C0.542546 18.4365 0 19.2654 0 20.1725V63.6302C0 64.9524 1.13503 66.0246 2.53527 66.0246H10.9016C12.3016 66.0246 13.4368 64.9527 13.4368 63.6302V26.5175H58.5636V63.6302C58.5636 64.9524 59.6987 66.0246 61.0989 66.0246H69.4652C70.8652 66.0246 72.0005 64.9527 72.0005 63.6302V20.1725C72 19.2654 71.4575 18.4365 70.5985 18.0308ZM66.9297 61.2358H63.6339V24.1231C63.6339 22.8009 62.4989 21.7287 61.0987 21.7287H10.9013C9.50133 21.7287 8.36606 22.8007 8.36606 24.1231V61.2358H5.0703V21.6522L36 7.04665L66.9297 21.6522V61.2358Z" fill="#F4EEEE"/>
<path d="M52.7324 30.3481H36.0001C35.02 30.3481 34.2255 31.0984 34.2255 32.0241V46.1509H19.2677C18.2876 46.1509 17.4932 46.9012 17.4932 47.8269V63.6297C17.4932 64.5553 18.2876 65.3056 19.2677 65.3056H52.7324C53.7126 65.3056 54.507 64.5553 54.507 63.6297V32.0243C54.5072 31.0984 53.7126 30.3481 52.7324 30.3481ZM37.7746 51.8737L41.8563 55.7286L37.7746 59.5836V51.8737ZM34.2255 59.5833L30.1438 55.7284L34.2255 51.8735V59.5833ZM40.2847 49.5031H48.4478L44.3661 53.358L40.2847 49.5031ZM40.2847 46.1509L44.3664 42.296L48.4481 46.1509H40.2847ZM50.9579 43.7805L46.8764 39.9256L50.9579 36.0707V43.7805V43.7805ZM44.3664 37.5552L40.2847 33.7003H48.4478L44.3664 37.5552ZM41.8563 39.9256L37.7746 43.7805V36.0709L41.8563 39.9256ZM27.6338 53.358L23.5521 49.5031H31.7152L27.6338 53.358ZM25.124 55.7284L21.0423 59.5833V51.8737L25.124 55.7284ZM27.6338 58.099L31.7155 61.9539H23.5523L27.6338 58.099ZM44.3661 58.099L48.4478 61.9539H40.2847L44.3661 58.099ZM46.8762 55.7284L50.9579 51.8735V59.5831L46.8762 55.7284Z" fill="#F4EEEE"/>
</g>
<defs>
<clipPath id="clip0_89:39">
<rect width="72" height="68" fill="white"/>
</clipPath>
</defs>
</svg>
